<?xml version="1.0" standalone="no"?>
<!DOCTYPE svg PUBLIC "-//W3C//DTD SVG 20010904//EN"
 "http://www.w3.org/TR/2001/REC-SVG-20010904/DTD/svg10.dtd">
<svg version="1.0" xmlns="http://www.w3.org/2000/svg"
 width="700.000000pt" height="700.000000pt" viewBox="0 0 700.000000 700.000000"
 preserveAspectRatio="xMidYMid meet">
<metadata>
Created by potrace 1.14, written by Peter Selinger 2001-2017
</metadata>
<g transform="translate(0.000000,700.000000) scale(0.100000,-0.100000)"
fill="#000000" stroke="none">
<path d="M2639 6955 c-58 -46 -115 -115 -167 -200 -50 -83 -594 -1436 -1149
-2860 -108 -275 -206 -527 -218 -560 -80 -211 -42 -436 110 -650 l43 -61 -25
-39 c-49 -78 -133 -261 -163 -355 l-31 -95 -117 -1 c-97 -1 -130 -6 -197 -28
-44 -14 -102 -38 -128 -54 l-49 -28 -87 -214 c-118 -292 -194 -461 -338 -753
l-123 -249 0 -379 0 -379 629 0 629 0 51 63 c66 80 125 199 152 307 14 53 60
168 124 305 171 367 343 772 480 1124 l67 174 -35 78 c-73 162 -202 357 -334
506 l-65 72 60 70 c33 38 79 97 101 130 50 74 127 228 146 296 l15 50 147 1
c167 0 261 19 388 78 l70 33 94 239 c176 448 383 918 599 1360 64 132 121 242
127 243 10 3 110 -203 231 -474 184 -413 376 -937 513 -1402 l22 -73 712 -2
712 -3 -175 -52 c-96 -29 -267 -78 -380 -109 -113 -31 -207 -58 -208 -59 -2
-2 4 -19 13 -38 28 -59 59 -67 249 -67 l166 0 0 -386 0 -387 -82 6 c-106 9
-185 29 -275 72 -87 40 -81 55 -52 -153 76 -548 243 -1071 498 -1567 94 -182
208 -381 239 -418 14 -16 56 -17 666 -15 l651 3 3 321 2 322 -169 338 c-155
311 -285 584 -435 916 l-58 126 -86 16 c-180 32 -273 40 -474 40 l-207 1 -7
64 c-4 35 -4 118 -2 185 8 197 65 331 208 491 118 132 148 215 115 314 -9 28
-34 73 -55 99 -29 38 -53 93 -110 258 -396 1147 -888 2267 -1436 3269 l-99
180 -720 2 -720 3 -56 -45z"/>
<path d="M2534 3123 l-72 -4 -32 -72 c-205 -457 -132 -738 215 -831 86 -23
305 -40 399 -32 l78 8 49 104 c243 515 136 774 -341 824 -92 9 -145 10 -296 3z
m292 -255 c138 -50 214 -197 190 -362 l-7 -46 -220 0 -219 0 0 60 c0 109 41
266 92 348 19 32 22 33 67 26 25 -4 69 -15 97 -26z"/>
<path d="M3557 3113 c-3 -5 -10 -56 -17 -115 -15 -130 -8 -339 15 -423 57
-207 188 -332 405 -386 66 -17 411 -18 450 -2 51 21 159 247 205 428 29 115
47 322 37 425 l-7 75 -162 3 -163 2 0 -330 0 -330 -220 0 -220 0 0 330 0 330
-159 0 c-88 0 -162 -3 -164 -7z"/>
</g>
</svg>
