<svg width="123" height="27" viewBox="0 0 123 27" fill="none" xmlns="http://www.w3.org/2000/svg">
<path d="M25.1173 26.4947H20.1161L17.5969 19.889H7.48333L4.8901 26.4947H0L10.4841 0.505348H14.6703L25.1173 26.4947ZM16.1151 15.8463L12.5957 6.13636L9.00222 15.8463H16.1151Z" fill="#E50B19"/>
<path d="M49.8494 26.4947H44.5518L38.1799 16.5682L31.845 26.4947H26.5844L35.5866 13.1751L27.029 0.505348H32.3266L38.254 9.89038L44.0702 0.505348H49.4419L40.8842 13.2112L49.8494 26.4947Z" fill="#E50B19"/>
<path d="M79.9792 13.3917C79.9792 17.1939 78.6579 20.4184 76.0153 23.0655C73.3727 25.6885 70.1126 27 66.2351 27C62.407 27 59.1469 25.6765 56.4549 23.0294C53.7876 20.3583 52.4539 17.1457 52.4539 13.3917C52.4539 9.70989 53.8123 6.55749 56.529 3.93449C59.2457 1.3115 62.4935 0 66.2722 0C70.0756 0 73.3109 1.3115 75.9783 3.93449C78.6456 6.53342 79.9792 9.68583 79.9792 13.3917ZM75.2744 13.3195C75.2744 10.9131 74.3729 8.80749 72.57 7.00267C70.7918 5.1738 68.6802 4.25936 66.2351 4.25936C63.7654 4.25936 61.629 5.1738 59.8261 7.00267C58.0479 8.83155 57.1588 10.9612 57.1588 13.3917C57.1588 15.9184 58.0356 18.1083 59.7891 19.9612C61.5426 21.8142 63.6913 22.7406 66.2351 22.7406C68.8777 22.7406 71.0635 21.8021 72.7923 19.9251C74.447 18.1203 75.2744 15.9184 75.2744 13.3195Z" fill="#E50B19"/>
<path d="M103.231 17.0374C103.231 20.0214 102.552 22.3797 101.193 24.1123C99.6622 26.0374 97.4147 27 94.451 27C91.4873 27 89.2028 26.1096 87.5974 24.3289C86.0909 22.6444 85.3376 20.3342 85.3376 17.3984V0.505348H89.9314V17.0013C89.9314 20.9238 91.4132 22.885 94.3769 22.885C96.0563 22.885 97.2295 22.2714 97.8963 21.0441C98.3902 20.1537 98.6372 18.8062 98.6372 17.0013V0.505348H103.231V17.0374Z" fill="#E50B19"/>
<path d="M123 4.58422H117.739V26.4947H113.109V4.58422H107.848V0.505348H123V4.58422Z" fill="#E50B19"/>
</svg>
