<svg width="39" height="48" viewBox="0 0 39 48" fill="none" xmlns="http://www.w3.org/2000/svg">
<path d="M2.29927 0.615631C1.36369 0.909145 0.684943 1.50534 0.263016 2.41341L0.0245361 2.91788V20.6663V38.4147L0.263016 38.9284C0.602392 39.653 1.08852 40.1483 1.79479 40.4968L2.40934 40.7995L12.5631 40.8271L22.726 40.8454V43.5512C22.726 46.5873 22.7444 46.6973 23.3314 47.1376C23.6157 47.3577 23.7625 47.4036 24.1844 47.4036C24.6797 47.4036 24.7898 47.3486 26.9636 46.092C28.2111 45.3765 29.275 44.7895 29.3301 44.7895C29.3851 44.7895 30.284 45.2756 31.3296 45.881C34.0263 47.4219 34.1455 47.477 34.6317 47.4219C35.0719 47.3761 35.4021 47.1743 35.6957 46.7707C35.8883 46.5231 35.8883 46.413 35.9158 41.2398L35.9341 35.9566L36.512 35.342C37.4659 34.2964 38.1905 32.9205 38.6033 31.3429C38.7867 30.655 38.8143 30.3064 38.8143 29.1048C38.8051 27.8666 38.7776 27.5639 38.5574 26.7659C38.2364 25.546 37.4751 24.0234 36.723 23.0878C35.769 21.8954 34.3749 20.8681 32.9715 20.2994L32.3111 20.0334L32.2652 11.4757L32.2194 2.91788L31.9167 2.30334C31.5681 1.59707 31.0728 1.11094 30.3482 0.771561L29.8346 0.533081L16.2595 0.514736C5.21607 0.505566 2.61113 0.523911 2.29927 0.615631ZM29.3117 11.494L29.3301 19.5289L28.3486 19.6298C22.9737 20.2077 19.1488 25.1057 19.8918 30.444C20.1486 32.306 21.1942 34.4523 22.3958 35.608L22.726 35.929V36.9196V37.9103L12.8383 37.8919L2.95968 37.8644L2.93216 20.758C2.92299 11.3472 2.93216 3.59663 2.95968 3.53243C2.98719 3.4407 5.67468 3.42236 16.1403 3.4407L29.2842 3.46822L29.3117 11.494ZM31.3021 22.8126C32.3386 23.1428 33.1182 23.629 33.9621 24.4728C34.7968 25.3075 35.2829 26.078 35.6315 27.1328C35.8424 27.784 35.8699 28.0133 35.8699 29.1048C35.8699 30.1963 35.8424 30.4256 35.6315 31.0769C35.2829 32.1317 34.7968 32.9022 33.9621 33.7369C33.1274 34.5715 32.3569 35.0577 31.3021 35.4062C30.229 35.7639 28.4312 35.7639 27.358 35.4062C26.3124 35.0577 25.5419 34.5807 24.6981 33.7369C23.8634 32.9022 23.3772 32.1317 23.0287 31.0769C22.8177 30.4256 22.7902 30.1963 22.7902 29.1048C22.781 28.0225 22.8177 27.7749 23.0195 27.1603C23.3772 26.0688 23.8634 25.2892 24.6889 24.4636C25.6978 23.4547 26.8536 22.8401 28.1835 22.5925C28.9907 22.4457 30.4766 22.5558 31.3021 22.8126ZM27.78 38.4973C29.2842 38.7541 30.9169 38.6349 32.3386 38.1487L32.999 37.9194V40.6711C32.999 42.1754 32.9807 43.4136 32.9623 43.4136C32.944 43.4136 32.2285 43.0101 31.3755 42.5239C29.2842 41.3132 29.3759 41.3132 27.2847 42.5239C26.4316 43.0101 25.7162 43.4136 25.6978 43.4136C25.6795 43.4136 25.6612 42.1754 25.6612 40.6711V37.9194L26.294 38.1396C26.6426 38.2588 27.3122 38.4147 27.78 38.4973Z" fill="white"/>
<path d="M8.18667 7.95362C7.57212 8.21962 7.22357 8.92589 7.36116 9.63216C7.44371 10.0633 8.01239 10.6411 8.43432 10.7145C8.59942 10.742 11.6721 10.7603 15.2677 10.742C21.6975 10.7145 21.7984 10.7145 22.046 10.5219C22.5322 10.1641 22.6789 9.87064 22.6789 9.29278C22.6789 8.71492 22.5322 8.42141 22.046 8.06369C21.7984 7.87107 21.6975 7.87107 15.1301 7.85273C9.72762 7.83438 8.4068 7.85273 8.18667 7.95362Z" fill="white"/>
<path d="M8.18667 13.8236C7.57212 14.0896 7.22357 14.7959 7.36116 15.5022C7.44371 15.9332 8.01239 16.5111 8.43432 16.5845C8.59942 16.612 11.6721 16.6303 15.2677 16.612C21.6975 16.5845 21.7984 16.5845 22.046 16.3919C22.5322 16.0341 22.6789 15.7406 22.6789 15.1628C22.6789 14.5849 22.5322 14.2914 22.046 13.9337C21.7984 13.7411 21.6975 13.7411 15.1301 13.7227C9.72762 13.7044 8.4068 13.7227 8.18667 13.8236Z" fill="white"/>
<path d="M8.18718 19.6941C7.56346 19.9601 7.22408 20.6664 7.36167 21.3726C7.44422 21.8037 8.0129 22.3816 8.43483 22.455C8.59993 22.4825 10.5169 22.5008 12.7 22.4825C16.534 22.455 16.6624 22.4458 16.91 22.2624C17.3962 21.9046 17.5429 21.6111 17.5429 21.0333C17.5429 20.4554 17.3962 20.1619 16.91 19.8042C16.6624 19.6207 16.5432 19.6116 12.5624 19.5932C9.29703 19.5749 8.40731 19.5932 8.18718 19.6941Z" fill="white"/>
<path d="M30.9364 25.656C30.5603 25.8211 30.386 26.0413 29.1936 27.839L28.1938 29.3525L27.5518 28.9305C26.9831 28.5545 26.8638 28.5086 26.3869 28.5086C25.8182 28.5086 25.5247 28.6645 25.167 29.1415C24.901 29.49 24.901 30.3614 25.1578 30.7283C25.2679 30.8659 25.965 31.3979 26.7171 31.9024C28.0562 32.8013 28.0929 32.8196 28.6066 32.8196C28.9918 32.8196 29.2028 32.7646 29.3954 32.6361C29.533 32.5261 30.3952 31.3337 31.3032 29.9854L32.9543 27.5272V26.9952C32.9543 26.4173 32.7983 26.1238 32.3397 25.7753C32.037 25.546 31.3032 25.4817 30.9364 25.656Z" fill="white"/>
</svg>
