<svg width="25" height="25" viewBox="0 0 25 25" fill="none" xmlns="http://www.w3.org/2000/svg">
<circle cx="12.5" cy="12.5" r="12.5" fill="white"/>
<path d="M7.39864 11.936C7.39864 11.936 12.0779 9.95202 13.7008 9.25342C14.3229 8.974 16.4326 8.07978 16.4326 8.07978C16.4326 8.07978 17.4064 7.68859 17.3252 8.63866C17.2981 9.02988 17.0818 10.3991 16.8654 11.8801C16.5408 13.9759 16.1892 16.2672 16.1892 16.2672C16.1892 16.2672 16.1351 16.91 15.6753 17.0217C15.2155 17.1335 14.4581 16.6305 14.3229 16.5187C14.2147 16.4349 12.2943 15.1774 11.5911 14.5627C11.4017 14.395 11.1853 14.0597 11.6181 13.6685C12.5918 12.7464 13.7549 11.6007 14.4581 10.8742C14.7827 10.5388 15.1073 9.75641 13.7549 10.7065C11.8345 12.0757 9.94114 13.3611 9.94114 13.3611C9.94114 13.3611 9.50836 13.6405 8.69694 13.389C7.88547 13.1376 6.9388 12.8022 6.9388 12.8022C6.9388 12.8022 6.28969 12.3831 7.39864 11.936Z" fill="#E50B19"/>
</svg>
