<svg width="40" height="40" viewBox="0 0 40 40" fill="none" xmlns="http://www.w3.org/2000/svg">
<circle cx="19.5175" cy="19.5175" r="19.5175" fill="#E50B19"/>
<path d="M11.5523 18.6369C11.5523 18.6369 18.8586 15.5391 21.3925 14.4483C22.3639 14.012 25.658 12.6158 25.658 12.6158C25.658 12.6158 27.1784 12.005 27.0517 13.4884C27.0094 14.0993 26.6716 16.2372 26.3338 18.5496C25.8269 21.822 25.2779 25.3997 25.2779 25.3997C25.2779 25.3997 25.1935 26.4032 24.4755 26.5778C23.7576 26.7523 22.575 25.967 22.3639 25.7924C22.1949 25.6615 19.1964 23.6981 18.0984 22.7382C17.8027 22.4764 17.4649 21.9529 18.1406 21.342C19.661 19.9022 21.477 18.1133 22.575 16.9789C23.0818 16.4553 23.5886 15.2337 21.477 16.7171C18.4785 18.8551 15.5222 20.8621 15.5222 20.8621C15.5222 20.8621 14.8465 21.2984 13.5795 20.9057C12.3125 20.5131 10.8343 19.9895 10.8343 19.9895C10.8343 19.9895 9.82082 19.335 11.5523 18.6369Z" fill="#F7F4F4"/>
</svg>
