<svg width="25" height="25" viewBox="0 0 25 25" fill="none" xmlns="http://www.w3.org/2000/svg">
<path d="M7.86368 16.0839C7.86192 16.043 7.8125 16.051 7.8125 16.0919C7.8125 16.1326 7.86159 16.1352 7.86371 16.0946C7.86379 16.0931 7.86383 16.0916 7.86383 16.0902C7.86383 16.0882 7.86378 16.086 7.86368 16.0839Z" fill="white"/>
<path d="M16.276 16.4769C16.2331 16.5159 16.2011 16.4695 16.242 16.4284C16.243 16.4274 16.244 16.4263 16.245 16.4253C16.2906 16.38 16.3394 16.414 16.2941 16.4595C16.2882 16.4655 16.2822 16.4712 16.276 16.4769Z" fill="white"/>
<path d="M11.1971 10.7328C11.0703 10.1569 10.7323 9.63389 10.3836 9.4701C10.2621 9.41727 10.1406 9.375 10.1089 9.375C9.7814 9.39613 9.33238 9.77654 9.12636 10.1992C8.96788 10.5268 8.95732 11.1608 9.09995 11.5888C9.84479 13.8025 13.0196 16.0268 14.71 15.5249C15.233 15.3717 15.682 14.8116 15.682 14.315C15.682 14.1037 15.6609 14.0614 15.4126 13.8395C15.1168 13.5753 14.7153 13.364 14.3402 13.2795C13.981 13.2002 13.7961 13.2953 13.5373 13.6968C13.4158 13.887 13.2837 14.035 13.2098 14.0508C12.9404 14.1248 12.0423 13.6017 11.5088 13.0681C11.1654 12.73 10.7164 12.1118 10.7164 11.9903C10.7164 11.9533 10.8115 11.8001 10.9277 11.6416C11.213 11.2612 11.2658 11.0763 11.1971 10.7328Z" fill="white"/>
<path d="M11.3103 0.0313553C7.39901 0.437389 3.9717 2.5654 1.88892 5.88216C-0.526329 9.72725 -0.633891 14.7366 1.61512 18.6649C2.60763 20.3966 3.95215 21.83 5.63402 22.96C6.79764 23.7379 8.56752 24.4814 9.91693 24.7505C10.9632 24.9609 11.3592 25 12.5082 25C13.662 25 14.1363 24.9511 15.1092 24.7505C19.4068 23.8553 23.0101 20.6266 24.384 16.439C24.8387 15.0595 25 14.0273 25 12.501C25 11.0285 24.8435 9.99142 24.4329 8.70972C23.8266 6.80185 22.8194 5.14836 21.3918 3.70034C19.441 1.72398 17.0258 0.505877 14.2438 0.094951C13.6425 0.00689547 11.9068 -0.0322403 11.3103 0.0313553ZM13.6718 6.33222C16.2239 6.82631 18.1796 8.7831 18.6734 11.3367C18.8005 11.9922 18.8005 13.0098 18.6734 13.6653C18.3018 15.5732 17.1138 17.1728 15.3977 18.0681C14.4736 18.5524 13.5985 18.7627 12.5082 18.7627C11.5157 18.7627 10.7432 18.5964 9.89248 18.205L9.54535 18.0436L8.98799 18.2099C7.78036 18.567 7.00298 18.7627 6.77319 18.7627C6.57763 18.7627 6.51407 18.7383 6.39184 18.6209C6.14738 18.3763 6.1816 18.2148 6.73408 16.9967L7.21811 15.9254L6.95898 15.4264C6.45051 14.4529 6.25005 13.6213 6.25005 12.4961C6.25005 11.4786 6.45051 10.5785 6.86609 9.74682C7.75592 7.97103 9.37423 6.72358 11.3103 6.33711C11.9313 6.20992 13.0362 6.20992 13.6718 6.33222Z" fill="white"/>
</svg>
