<svg width="39" height="39" viewBox="0 0 39 39" fill="none" xmlns="http://www.w3.org/2000/svg">
<path d="M12.2673 25.0908C12.2646 25.027 12.1875 25.0396 12.1875 25.1034C12.1875 25.1669 12.2641 25.171 12.2674 25.1076C12.2675 25.1052 12.2676 25.1029 12.2676 25.1008C12.2676 25.0975 12.2675 25.0942 12.2673 25.0908Z" fill="#E50B19"/>
<path d="M25.3905 25.7039C25.3237 25.7649 25.2738 25.6924 25.3375 25.6283C25.3391 25.6267 25.3407 25.6251 25.3422 25.6235C25.4133 25.5529 25.4895 25.6059 25.4188 25.6769C25.4096 25.6861 25.4002 25.6951 25.3905 25.7039Z" fill="#E50B19"/>
<path d="M17.4675 16.7432C17.2697 15.8448 16.7423 15.0289 16.1984 14.7734C16.0089 14.6909 15.8194 14.625 15.7699 14.625C15.259 14.658 14.5585 15.2514 14.2371 15.9108C13.9899 16.4218 13.9734 17.4108 14.1959 18.0785C15.3579 21.5319 20.3106 25.0019 22.9476 24.2189C23.7635 23.9798 24.4639 23.1062 24.4639 22.3314C24.4639 22.0017 24.431 21.9358 24.0437 21.5896C23.5822 21.1775 22.9559 20.8478 22.3708 20.7159C21.8104 20.5923 21.522 20.7407 21.1182 21.3671C20.9286 21.6638 20.7226 21.8946 20.6073 21.9193C20.187 22.0347 18.786 21.2187 17.9537 20.3863C17.4181 19.8588 16.7176 18.8944 16.7176 18.7049C16.7176 18.6472 16.8659 18.4081 17.0472 18.1609C17.4922 17.5674 17.5746 17.279 17.4675 16.7432Z" fill="#E50B19"/>
<path d="M17.6441 0.0489143C11.5425 0.682327 6.19586 4.00202 2.94671 9.17617C-0.821074 15.1745 -0.98887 22.9892 2.51959 29.1172C4.0679 31.8188 6.16535 34.0548 8.78907 35.8177C10.6043 37.0311 13.3653 38.1911 15.4704 38.6108C17.1026 38.9389 17.7204 39 19.5128 39C21.3128 39 22.0526 38.9237 23.5704 38.6108C30.2746 37.2142 35.8958 32.1775 38.039 25.6449C38.7483 23.4928 39 21.8826 39 19.5016C39 17.2045 38.7559 15.5866 38.1153 13.5872C37.1695 10.6109 35.5983 8.03145 33.3712 5.77253C30.328 2.68941 26.5602 0.789168 22.2204 0.148124C21.2823 0.0107569 18.5746 -0.0502949 17.6441 0.0489143ZM21.328 9.87826C25.3094 10.649 28.3602 13.7016 29.1305 17.6853C29.3288 18.7079 29.3288 20.2952 29.1305 21.3179C28.5509 24.2941 26.6975 26.7896 24.0204 28.1862C22.5789 28.9417 21.2136 29.2699 19.5128 29.2699C17.9645 29.2699 16.7594 29.0104 15.4323 28.3999L14.8907 28.148L14.0213 28.4075C12.1374 28.9646 10.9247 29.2699 10.5662 29.2699C10.2611 29.2699 10.1619 29.2317 9.97127 29.0485C9.58991 28.667 9.6433 28.4151 10.5052 26.5149L11.2602 24.8436L10.856 24.0652C10.0628 22.5465 9.75008 21.2492 9.75008 19.4939C9.75008 17.9066 10.0628 16.5024 10.7111 15.205C12.0992 12.4348 14.6238 10.4888 17.6441 9.88589C18.6128 9.68748 20.3365 9.68748 21.328 9.87826Z" fill="#E50B19"/>
</svg>
